# xmcd
#
# Track frame offsets: 
#        150
#        12973
#        16252
#        28162
#        39680
#        52139
#        64216
#        68795
#        86083
#        100234
#        111756
#        131392
#        138473
#        147677
#        160557
#
# Disc length: 2380 seconds
#
# Revision: 0
# Processed by: cddbd v1.5.2PL0 Copyright (c) Steve Scherf et al.
# Submitted via: ExactAudioCopy v0.99pb5
#
DISCID=d5094a0f
DTITLE=Jasmine Kara - Blues Ain't Nothing But A Good Woman Gone Bad
DYEAR=2010
DGENRE=Blues
TTITLE0=Fire
TTITLE1=The Mad Midget
TTITLE2=In The Basement - Part 1
TTITLE3=Are You Doing Me Wrong
TTITLE4=Ain't No More Room
TTITLE5=Try My Love Again
TTITLE6=Train Gone Mad
TTITLE7=Must I Holler
TTITLE8=My Party
TTITLE9=My Babe
TTITLE10=Ordinary Joe
TTITLE11=Midget In The Coal Mine
TTITLE12=In The Basement - Part 2
TTITLE13=Grits Ain't Groceries
TTITLE14=Liberation Conversation
EXTD=
EXTT0=
EXTT1=
EXTT2=
EXTT3=
EXTT4=
EXTT5=
EXTT6=
EXTT7=
EXTT8=
EXTT9=
EXTT10=
EXTT11=
EXTT12=
EXTT13=
EXTT14=
PLAYORDER=
